<?xml version="1.0" encoding="UTF-8"?>
<svg id="Layer_1" xmlns="http://www.w3.org/2000/svg" version="1.1" viewBox="0 0 1254 1254">
  <!-- Generator: Adobe Illustrator 30.3.0, SVG Export Plug-In . SVG Version: 2.1.3 Build 182)  -->
  <defs>
    <style>
      .st0 {
        fill: #bb8f45;
      }

      .st1 {
        fill: #15395d;
      }
    </style>
  </defs>
  <g>
    <path class="st0" d="M859.59,637.33l-99.71-.47c-6.48-.03-11.85,6.91-11.83,13.39l.42,163.26c.03,11.15,3.47,21.72,9.03,30.61,9.23,14.77,27.56,15.91,40.8,19.38,2.09.55,1.84,8.75-.78,8.75l-179.36-.04c-2.74,0-2.69-8.9-.15-9.16,12.36-1.23,23.83-3.3,33.76-10.75,12.26-9.21,17.65-24.22,17.69-39.77l.22-78.52c13.51-20.18,23.63-42.1,27.34-66.38l2.71-17.72.64-37.75-4.02-18.6c-4.84-22.43-13.82-42.35-26.71-61.19l.09-52.22c.03-20.05-3.64-43.67-19.52-54.82-10.01-7.02-22.6-9.44-35-11.92-2.46-1.15-2.47-8.47.04-10.4l354.44-.04c1.76,6.76-.11,12.78-.13,19.11l-.15,43.45-1.64,10.28-1.44,26.47c-.17,3.15-7.51,3.56-7.95.85-4.93-30.24-23.4-59.81-54.44-64.47l-25.49-3.83-117.02-.14c-7.11,0-13.15,6.47-13.16,13.66l-.26,150.24c0,4.25,3.36,7.56,7.8,7.54l105.8-.54c30.08-.15,50.24-13.76,59.36-41.94,1.01-3.11,3.52-5.11,7.15-3.59l.08,126.6c0,1.82-3.58,1.87-4.81,1.28-4.12-1.96-5.75-27.85-27.48-40.79-10.57-6.29-23.04-9.79-36.33-9.85Z"/>
    <path class="st0" d="M1108.32,772.62c14.11-67.42,25.52-129.71,22.68-197.3l-1.15-27.39c-5.28-64.28-20.15-126.45-47.69-185.01-23.83-50.67-54.13-96.66-92.42-137.75-52.37-56.21-116.55-100.64-187.84-129.68-47.48-19.34-96.55-31.62-147.35-34.67l-31.18-1.87c29.89-5.15,60.08-8.66,90.96-7.2l22.28,1.06c127.68,10.86,249,78.94,331.5,175.98,77.84,91.56,122.38,205.05,127.5,325.15,1.7,39.88-.92,78.4-4.86,118.6-43.44,19.28-59.95,59.7-82.43,100.08Z"/>
  </g>
  <g>
    <path class="st1" d="M458.3,1161.99c-3.26-1.17-10.31-4.32-15.19-6.36-51.77-21.57-102.4-45.53-151.8-73.78-45.55-26.04-87.17-56.83-122.9-95.06-72.25-77.3-114.14-187.43-123.48-292.07,7.24-2.42,13.5-.8,19.22,2.36,25.37,14.05,41.96,43.4,54.2,70.02,30.22,65.71,62.95,125.22,122.2,169.44,36.61,27.32,78.19,45.06,124.49,51.51-1.72-7.6-7.68-10.28-12.4-14.26l-47.74-40.28c-27.67-23.34-50.97-51.14-66.41-84-5.69-12.13-9.91-24.48-9.3-37.19.58-12.25,8.97-19.97,21.21-18.9,9.63.84,17.83,6.39,24.21,13.92,13.05,15.4,24.46,31.52,39.85,44.89,26.74,23.23,57.66,38.25,91.84,47.42,39.2,10.52,75.42,26.93,105.62,53.76,10.76,9.56,20.37,18.37,29.35,29.49,16.91,20.94,30.33,43.15,42.41,67.29,11.06,22.09,22.35,42.64,37.59,62.74-27.22,46.23-67.89,78.11-115.66,101.86-119.62-21.64-230.69-83.97-311.08-174.98-1.81-2.04-2.62-3.33-2.94-5.36-.15-.36-.41-.66-.73-.72l-1.6-.31c-.1-.03-.2-.15-.3-.28l-1.04-1.25c-.16-.19-.32-.32-.42-.37-2.08-1.09-.02-3.62,1.47-1.72.07.12.34.37.6.64l.89.91c.19.2.34.44.58.56.4.2.78.51.97.88.17.33.46.48.78.16,66.45,58.96,152.58,102.53,238.56,124.01"/>
    <g>
      <path class="st0" d="M640.15,1122.92l30.39-62.75c9.49-19.6,18.59-37.8,30.53-55.95,32.77-49.79,80.84-85.29,138.44-101.57,38.36-10.84,70.74-23.23,101.15-49.87,6.93-6.07,13.02-11.96,18.93-19.09l23.23-28.01c7.84-9.45,20.26-15.44,32.39-10.9,7.57,2.83,11.28,12.63,11.02,20.83-.48,15.53-6.74,29.35-13.98,42.92-13.18,24.71-30.54,45.71-51.09,64.64-16.29,15-31.71,29.37-49.35,42.78l-16.53,15.65-3.11,1.95c-10.44,6.55,17.62,2.88,40.77-4.85l22.2-7.41c64.56-27.13,108.66-71.45,144.6-130.83l33.57-65.98c13.88-27.28,29.62-63.69,58.51-77.68,5.36-2.6,10.83-4.37,17.25-1.57-11.31,112.88-55.46,226.53-137.2,306.12l-20.28,18.37c-69.2,62.69-166.56,104.32-251.81,142.14,19.75-2.39,36.65-6.67,54.66-11.9,84.01-24.39,130.17-54.8,196.48-109.27l12.34-10.14c1.38-1.13,2.47-6.58,6.79-2.46-5.88,3-7.79,7.88-11.45,11.5l-39.87,39.35c-84.03,77.92-183.33,125.07-297.37,140.33l-14.29,1.91-64,4.79-35.52-.44-22.46-.94c-15.74-.66-31.68-.72-47.52-5.58,43.37-23.51,77.9-54.73,102.56-96.08Z"/>
      <path class="st0" d="M1082.59,832.34l-22.93,35.63-16.83,20.36c-17.06,20.64-37.1,36.01-59.48,49.36-7.07,4.22-13.15,10.47-22.54,10.07,30.29-25.7,56.34-58.45,71.04-93.41,5.92-14.06,8.81-27.26,11.22-41.78,2.78-16.73,21.09-44.68,37.26-38.07"/>
    </g>
    <path class="st1" d="M280.27,934.43l1.94,1.76.08.87c.13,1.44,1.67,2.46,3.13,2.97l1.44,2.11c.34-.02.68.03.95.2l.64.4-2.02,2.41c-.25-.18-.36-.66-.42-1.11l-.12-.8-2.65-.22c1.11-.71.41-1.45-.21-1.49l-2.36-.09c-2.09-1.12-5.64-3.89-8.24-4.31-.76-1.11-1.87-1.77-3.16-1.97-.24-.42-.95-.72-1.31-1.04-.34-.71-.97-1.29-1.72-1.51-.29-.09-.72-.11-1.02-.05-.09-2.44-2.47-3.56-4.74-3.17l-2.93-2.49c-.33-.73-.99-1.3-1.76-1.52-.3-.08-.69-.08-.97-.02-.69-1.09-1.83-1.74-3-2.01-26.92-20.1-49.7-44.63-67.82-73.71-2.85-5.7-9.36-10.83-10.36-17.22l-.77-49.12c-.04-2.83,1-8.21,3.04-9.57,16.76-3.63,33.78,24.48,36.32,40.63,1.85,11.75,3.72,22.54,8.32,33.6,9.16,22.02,21.25,41.89,36.24,60.47,7.62,9.44,14.11,19.27,23.51,25.99Z"/>
    <path class="st0" d="M286.43,945.16l2.02-2.41c2.22,1.4,5.38,2.08,5.54,5.88-3.34-.19-5.5-1.96-7.56-3.47Z"/>
    <path class="st0" d="M265.2,932.57c-2.31.42-4.37-.81-4.74-3.17,2.27-.39,4.65.73,4.74,3.17Z"/>
    <path class="st0" d="M283.23,943.03c0,.37-.22,1.19-.65,1.22-.71.05-1.09-.39-1.34-.71s-.23-1.91-.58-2.1l2.36.09c.62.03,1.32.78.21,1.49Z"/>
    <path class="st0" d="M285.42,940.03c-1.46-.51-3-1.53-3.13-2.97.92-.28,2.46,0,2.67.94l.46,2.03Z"/>
    <path class="st0" d="M272.42,937.14c-1.48-.23-2.44-.7-3.16-1.97,1.29.2,2.4.85,3.16,1.97Z"/>
    <path class="st0" d="M254.8,925.37c-1.67.33-2.57-.9-3-2.01,1.18.28,2.32.92,3,2.01Z"/>
    <path class="st0" d="M282.21,936.19l-1.94-1.76c.56.4,1.83.61,1.94,1.76Z"/>
    <path class="st0" d="M267.95,934.13l-1.72-1.51c.75.23,1.39.8,1.72,1.51Z"/>
    <path class="st0" d="M257.53,926.91l-1.76-1.52c.77.22,1.43.79,1.76,1.52Z"/>
  </g>
  <g>
    <path class="st1" d="M141.7,764.52c-.75-3.28-2.71-6.01-4.28-8.99-.35-.66-.88-1.25-1.19-1.96-6.79-14.98-16.4-28.51-25.64-43.12l-16.46-17.15c-9.06-9.44-19.52-16.16-32.06-20.98-27.45-173.91,24.08-335.99,141.48-465.79,19.01-21.01,39-38.6,60.96-56.38,40.28-32.62,83.94-58.98,132.07-78.64,81.33-32.7,168.57-51.44,255.24-40.2-69.64,6.84-138.48,19.91-200.75,50.39-121.54,55.17-222.06,159.06-279.77,278.6-19.93,41.28-33.43,83.57-41.96,128.35-17.54,92.04-7.58,175.63,12.41,264.92"/>
    <path class="st1" d="M143.53,759.73"/>
    <path class="st1" d="M142.1,756.59"/>
    <g>
      <path class="st1" d="M671.52,582.01c22.03,71.12-2.99,143.48-65.86,183.21-37.17,23.49-80.19,32.39-123.99,30.25-10.87-.53-21-.14-31.74-3.55,34.34-4.26,65.89-13.62,94.08-32.44,46.9-31.31,72.25-87.75,47.5-140.24-16.81-35.65-55.44-60.27-90.48-78.15l-62.98-32.15c-41.84-21.36-85.59-47.49-102.15-92.17-9.52-25.67-9.9-53.2-.62-79.1,10.93-30.5,34.39-52.56,63.43-66.32,26.17-12.4,53.68-17.01,82.97-17.55,54.74-1.01,107.68,14.26,152.76,46l-.5,29.96-1.19,44c-.04,1.59-.43,4.15-1.18,5.19-.8,1.11-3.64,1.03-6.12.49-16.28-54.63-59.96-92.68-117.78-98.68-22.83-2.37-45.55.76-65.63,11.57-24.26,13.05-38.33,38.83-33.68,66,7.32,42.69,54.2,61.76,89.5,79.45l60.45,30.29c48.31,24.21,96.53,60.11,113.22,113.96Z"/>
      <path class="st1" d="M508.63,752.98c-37.04,17.9-77.92,24.52-118.22,17.31-35.32-6.32-62.28-30.95-72.65-64.81-7.41-24.19-5.87-57.22,16.52-71.04,3.66,26.88,16.17,49.23,34.62,68.27,31.23,32.21,73.17,51.39,118.41,51.16,7.21.08,13.3-3.24,21.31-.89Z"/>
    </g>
  </g>
</svg>